<svg class="hot-cats_block__item__svg" width="24" height="24" viewBox="0 0 24 24" fill="none" xmlns="http://www.w3.org/2000/svg">
    <path class="hot-cats_block__item__path" d="M22.8304 15.1953C21.8133 16.357 20.2188 16.9461 18.0911 16.9461C14.2314 16.9461 12.6489 15.6733 12 14.617C11.3513 15.6732 9.76864 16.9461 5.90894 16.9461C3.78128 16.9461 2.18678 16.357 1.1697 15.1953C-0.24851 13.5754 0.0148562 11.4593 0.0267967 11.3701C0.0584502 11.132 0.271689 10.962 0.510836 10.9806C0.750209 11.0005 0.931794 11.2046 0.923796 11.4448C0.922782 11.6109 0.989469 12.4697 2.42165 12.5031L2.43607 12.5033C3.07702 12.5032 3.75729 11.4273 4.41514 10.387C5.40294 8.82463 6.52264 7.05383 8.37318 7.05383C10.4122 7.05383 11.4816 7.97201 12 8.66996C12.5184 7.97212 13.588 7.05383 15.6269 7.05383C17.4774 7.05383 18.597 8.82463 19.5848 10.3869C20.2427 11.4273 20.9229 12.5033 21.564 12.5032L21.5785 12.503C23.0106 12.4696 23.0773 11.6108 23.0762 11.439C23.0681 11.1989 23.2499 10.9976 23.4892 10.9776C23.7269 10.958 23.9415 11.1318 23.9733 11.37C23.9852 11.4593 24.2486 13.5754 22.8304 15.1953Z" fill="black"/>
</svg>