<svg class="hot-cats_block__item__svg" width="24" height="24" viewBox="-2 2 22 24" fill="none" xmlns="http://www.w3.org/2000/svg">
    <path class="hot-cats_block__item__path" d="M17.0625 21.1406H4.40625C4.01788 21.1406 3.70312 21.4554 3.70312 21.8438V23.2969C3.70312 23.6854 4.0177 24 4.40625 24H17.0625C17.451 24 17.7656 23.6854 17.7656 23.2969V21.8438C17.7656 21.4554 17.4509 21.1406 17.0625 21.1406Z" fill="black"/>
    <path class="hot-cats_block__item__path" d="M19.6415 6.68317L15.063 2.59625L15.6205 0.925598C15.692 0.711365 15.6562 0.475159 15.5231 0.291687C15.3913 0.108398 15.1798 0 14.9531 0C13.3449 0 12.039 0.709351 11.075 2.11688C6.93585 2.28516 4.48737 5.36884 3.79376 11.2899C3.77051 11.4959 3.75531 11.647 3.76501 11.6475C3.64545 11.9134 3.70313 12.225 3.90784 12.431L4.10962 12.6281C4.54834 13.0481 4.91327 13.4533 5.05042 15.5156H16.3594V14.8997C16.3594 13.6981 15.5973 12.5786 14.463 12.1846C11.6008 10.6472 13.0827 11.7799 9.53412 8.23151C9.25946 7.95685 9.25946 7.5119 9.53412 7.23724C9.80878 6.96259 10.2537 6.96259 10.5284 7.23724C11.0814 7.79022 12.9496 9.8454 13.6917 10.0574L13.7091 10.0624C14.3425 10.2433 15.0157 10.1977 15.6194 9.93402C15.6286 9.92999 15.6376 9.92615 15.6467 9.92212L16.1274 10.1624C17.7094 10.9526 19.279 10.22 19.9534 9.12689C20.5122 8.22327 20.3681 7.22552 19.6415 6.68317ZM12.8438 6.32812C12.4554 6.32812 12.1406 6.01337 12.1406 5.625C12.1406 5.23663 12.4554 4.92188 12.8438 4.92188C13.2321 4.92188 13.5469 5.23663 13.5469 5.625C13.5469 6.01337 13.2321 6.32812 12.8438 6.32812Z" fill="black"/>
    <path class="hot-cats_block__item__path" d="M16.3594 16.9219H5.10938C4.33264 16.9219 3.70312 17.5514 3.70312 18.3281C3.70312 19.1047 4.33264 19.7344 5.10938 19.7344H16.3594C17.1361 19.7344 17.7656 19.1047 17.7656 18.3281C17.7656 17.5514 17.1361 16.9219 16.3594 16.9219Z" fill="black"/>
</svg>