<svg class="hot-cats_block__item__svg" width="24" height="24" viewBox="2 1 18 24" fill="none" xmlns="http://www.w3.org/2000/svg">
    <path class="hot-cats_block__item__path" d="M23.8446 11.0006C23.291 10.7762 22.4773 9.71966 21.6137 8.60202C20.0479 6.57035 18.2725 4.26807 16.3595 4.26807C13.8319 4.26807 12.4528 5.8032 11.9757 6.46565C11.4417 5.86548 9.98093 4.4735 7.92726 4.4735C6.31491 4.4735 4.34911 6.78134 2.61661 8.81742C1.61616 9.99179 0.671364 11.101 0.166755 11.2728C0.0715702 11.3058 0.00601208 11.3929 0.000149668 11.4925C-0.00571274 11.5925 0.0495704 11.687 0.141163 11.7298C0.988501 12.1294 1.85715 13.2078 2.86277 14.4559C4.26968 16.2034 5.86489 18.1838 7.98374 18.9967C9.27385 19.4911 10.6603 19.7321 12.224 19.7321C13.7199 19.7321 15.1693 19.5035 16.2643 19.3058C18.1466 18.9644 20.9612 15.2233 22.642 12.9874C23.1789 12.2725 23.7348 11.5339 23.8747 11.4438C23.956 11.3973 24.0058 11.3072 23.9992 11.2127C23.9933 11.1181 23.934 11.0357 23.8446 11.0006ZM21.2461 11.7312C20.1277 12.4705 17.3314 13.9752 12.8528 14.1811C8.22435 14.3905 4.80625 12.7551 3.34216 11.8865C4.3389 11.6539 5.18416 11.1852 5.94438 10.763C6.8064 10.2851 7.55162 9.87202 8.32868 9.87202C9.28961 9.87202 10.2366 10.1833 10.9972 10.4337C11.6077 10.6348 12.0921 10.7923 12.4477 10.7659C12.7678 10.7447 13.1919 10.6194 13.6826 10.4733C14.4289 10.2521 15.3583 9.97679 16.254 9.97679C16.8978 9.97679 17.7233 10.3602 18.597 10.7667C19.4642 11.1716 20.3554 11.5862 21.2461 11.7312Z" fill="black"/>
</svg>