<svg class="hot-cats_block__item__svg" width="24" height="24" viewBox="-3 0 22 24" fill="none" xmlns="http://www.w3.org/2000/svg">
    <path class="hot-cats_block__item__path" d="M0.1811 14.1108C0.1811 14.1108 -0.935084 9.79472 2.71119 10.7626C2.71119 10.7626 9.18038 14.27 17.2959 10.7626C20.9422 9.79548 19.826 14.1108 19.826 14.1108C17.7419 20.5102 10.003 19.9898 10.003 19.9898C10.003 19.9898 2.26442 20.5102 0.1811 14.1108ZM2.53573 2.33991C2.53573 1.04789 3.58361 0 4.87602 0C6.16767 0 7.21555 1.04789 7.21555 2.33991C7.21555 3.63269 6.16767 4.68058 4.87602 4.68058C3.58361 4.68058 2.53573 3.63232 2.53573 2.33991ZM13.1455 2.33991C13.1455 1.04789 14.1945 0 15.4862 0C16.7778 0 17.8261 1.04789 17.8261 2.33991C17.8261 3.63269 16.7782 4.68058 15.4862 4.68058C14.1945 4.68058 13.1455 3.63232 13.1455 2.33991Z" fill="black"/>
</svg>