<svg class="contacts_block__item__icon" width="22" height="20" viewBox="-2 0 22 20" fill="none" xmlns="http://www.w3.org/2000/svg">
    <path d="M8.99983 0C3.47714 0 -1 4.47727 -1 9.99983C-1 15.5224 3.47714 20 8.99983 20C14.5225 20 19 15.5224 19 9.99983C19 4.47727 14.5225 0 8.99983 0ZM13.323 11.9018H9.0835C9.06917 11.9018 9.05583 11.8983 9.04163 11.8978C9.02743 11.8985 9.01417 11.9018 8.99977 11.9018C8.61783 11.9018 8.30816 11.5921 8.30816 11.2102V4.15C8.30816 3.76806 8.61783 3.45839 8.99977 3.45839C9.38171 3.45839 9.69138 3.76806 9.69138 4.15V10.5186H13.3228C13.7047 10.5186 14.0144 10.8282 14.0144 11.2102C14.0144 11.5921 13.705 11.9018 13.323 11.9018Z" fill="black"/>
</svg>
