<svg width="16" height="16" viewBox="0 0 16 16" fill="none" xmlns="http://www.w3.org/2000/svg">
    <path class="sm-link_face__img_path" d="M11.9994 0.00332907L9.92457 0C7.59356 0 6.08715 1.54552 6.08715 3.93762V5.75313H4.00099C3.82072 5.75313 3.67474 5.89927 3.67474 6.07954V8.71001C3.67474 8.89028 3.82089 9.03625 4.00099 9.03625H6.08715V15.6738C6.08715 15.854 6.23313 16 6.4134 16H9.13525C9.31552 16 9.4615 15.8539 9.4615 15.6738V9.03625H11.9007C12.081 9.03625 12.227 8.89028 12.227 8.71001L12.228 6.07954C12.228 5.99299 12.1935 5.91009 12.1324 5.84884C12.0713 5.78758 11.9881 5.75313 11.9015 5.75313H9.4615V4.2141C9.4615 3.47438 9.63777 3.09886 10.6014 3.09886L11.9991 3.09836C12.1792 3.09836 12.3252 2.95222 12.3252 2.77211V0.329578C12.3252 0.149642 12.1793 0.00366197 11.9994 0.00332907Z" fill="black"/>
</svg>