<svg width="13" height="16" viewBox="0 0 13 16" fill="none" xmlns="http://www.w3.org/2000/svg">
<path d="M0.506 7.992H2.244V0.754C2.86 0.636666 3.498 0.548666 4.158 0.489999C4.818 0.416666 5.51467 0.379999 6.248 0.379999C7.01067 0.379999 7.744 0.445999 8.448 0.577999C9.152 0.709999 9.768 0.951999 10.296 1.304C10.824 1.656 11.242 2.14 11.55 2.756C11.8727 3.372 12.034 4.164 12.034 5.132C12.034 6.02667 11.88 6.782 11.572 7.398C11.264 8.014 10.8533 8.52 10.34 8.916C9.82667 9.29733 9.24 9.576 8.58 9.752C7.92 9.91333 7.23067 9.994 6.512 9.994H5.016V11.27H8.536V13.272H5.016V16H2.244V13.272H0.506V11.27H2.244V9.994H0.506V7.992ZM5.016 7.926H6.16C6.556 7.926 6.93 7.882 7.282 7.794C7.64867 7.69133 7.964 7.53733 8.228 7.332C8.492 7.12667 8.69733 6.85533 8.844 6.518C9.00533 6.166 9.086 5.748 9.086 5.264C9.086 4.36933 8.844 3.73867 8.36 3.372C7.876 2.99067 7.25267 2.8 6.49 2.8C6.19667 2.8 5.918 2.81467 5.654 2.844C5.39 2.85867 5.17733 2.88067 5.016 2.91V7.926Z" fill="black"/>
</svg>
