<svg class="type-list__icon" width="40" height="38" viewBox="0 0 40 38" fill="none" xmlns="http://www.w3.org/2000/svg">
    <path class="type-list__icon__path" d="M39.7842 10.5792C39.7749 10.5695 39.7654 10.56 39.7557 10.5508L31.4987 3.21205C31.4233 3.14337 31.3354 3.0901 31.2396 3.05507L25.2666 0.920169C24.8592 0.772217 24.4089 0.982666 24.261 1.39012C24.2343 1.46361 24.2188 1.54063 24.2149 1.61872C24.2149 1.7914 23.9559 5.77079 19.9765 5.83359C15.9735 5.77079 15.7223 1.7914 15.7145 1.61872C15.6913 1.18585 15.3217 0.853748 14.8888 0.876902C14.8144 0.880924 14.7409 0.895445 14.6706 0.920169L8.70543 3.07862C8.60967 3.11364 8.52176 3.16692 8.44641 3.2356L0.244302 10.5508C-0.0699482 10.8493 -0.0827027 11.3462 0.21585 11.6604C0.225073 11.6701 0.234589 11.6796 0.244302 11.6889L6.77459 18.2898V36.3423C6.77459 36.7757 7.12603 37.1272 7.55948 37.1272H32.4405C32.874 37.1272 33.2254 36.7757 33.2254 36.3423V18.2898L39.7557 11.6889C40.07 11.3903 40.0827 10.8936 39.7842 10.5792ZM33.2019 16.0529V12.411C33.2019 11.9775 32.8504 11.6261 32.417 11.6261C31.9835 11.6261 31.6321 11.9775 31.6321 12.411V35.5182H8.31298V12.411C8.31298 11.9775 7.96155 11.6261 7.52809 11.6261C7.09463 11.6261 6.7432 11.9775 6.7432 12.411V16.0607L1.91612 11.1708L9.38828 4.48357L14.3017 2.70972C14.9104 5.84595 17.9462 7.895 21.0825 7.28632C23.3986 6.83677 25.2095 5.02584 25.6591 2.70972L30.5725 4.48357L38.0211 11.1708L33.2019 16.0529Z" fill="#333"/>
</svg>
