<svg class="type-list__icon" width="32" height="40" viewBox="0 0 32 40" fill="none" xmlns="http://www.w3.org/2000/svg">
    <path class="type-list__icon__path"  d="M29.1899 5.02381C28.8864 2.30527 25.5223 1.01432 25.5223 1.01432C24.4942 0.606956 22.3652 0.0403093 22.2749 0.0164366L22.2726 0.0182651C22.1188 -0.0218613 21.9485 0.00963033 21.8174 0.119038C21.7991 0.134276 19.9353 1.65106 16 1.65106C12.0776 1.65106 10.2131 0.14413 10.1829 0.119242C10.0516 0.00830971 9.88032 -0.0236899 9.72581 0.0169445L9.7251 0.0164366C9.63489 0.0403093 7.50575 0.607058 6.4778 1.01432C6.4778 1.01432 3.18621 2.15757 2.81044 5.02371C2.7692 5.33833 1.09851 14.7898 0.628475 36.6543C0.625529 36.7909 0.677643 36.9227 0.773337 37.0204C0.868726 37.118 0.999772 37.173 1.1362 37.173H5.36909V38.569C5.36909 38.7821 5.50206 38.9723 5.70178 39.0458C5.80784 39.0848 8.38599 40 15.9999 40C23.6139 40 26.1921 39.0848 26.2982 39.0458C26.4981 38.9722 26.6309 38.782 26.6309 38.569V37.173H30.8638C31.0004 37.173 31.1313 37.118 31.2267 37.0204C31.3223 36.9227 31.3745 36.7908 31.3716 36.6543C30.9015 14.7925 29.2252 5.34137 29.1899 5.02381ZM15.9999 2.66692C18.5929 2.66692 20.3671 2.06025 21.3941 1.55618C20.6919 3.04055 18.5397 4.12427 15.9999 4.12427C13.4602 4.12427 11.3081 3.04055 10.6057 1.55618C11.6329 2.06025 13.4071 2.66692 15.9999 2.66692ZM1.65541 36.1572C2.14394 14.4989 3.81198 5.19092 3.8131 5.18656C4.35739 2.83464 6.85204 1.95876 6.85204 1.95876C7.50961 1.69819 8.70121 1.35341 9.41038 1.15572C9.47834 1.50193 9.60187 1.83777 9.77569 2.15909C6.6699 3.18267 5.66785 7.07311 5.34613 9.52611L5.13971 8.81236C5.06169 8.54296 4.7803 8.38753 4.51069 8.46565C4.24128 8.54357 4.08585 8.82516 4.16387 9.09467L5.20726 12.7022L5.36919 26.1676V36.1574H1.65541V36.1572ZM25.6151 38.1876C24.7158 38.4182 21.9058 38.9842 15.9999 38.9842C10.092 38.9842 7.28216 38.4178 6.38495 38.1877V26.1655C6.38495 26.1644 6.20931 11.5698 6.20931 11.5698C6.20941 11.4928 6.26589 4.02665 10.4099 3.03314C10.6821 3.3253 11.003 3.59816 11.372 3.84582C12.6153 4.68045 14.2589 5.14013 16 5.14013C17.741 5.14013 19.3847 4.68045 20.6281 3.84582C20.9972 3.59816 21.318 3.3253 21.5902 3.03314C25.7342 4.02675 25.7906 11.4927 25.7908 11.5635C25.7908 11.5635 25.6153 26.1645 25.6153 26.1655V38.1876H25.6151ZM26.6309 36.1572V26.1716L26.7929 12.7019L27.8364 9.09447C27.9144 8.82496 27.7592 8.54326 27.4897 8.46545C27.2201 8.38712 26.9385 8.54275 26.8606 8.81216L26.6543 9.5256C26.3327 7.07463 25.3316 3.18237 22.2248 2.15858C22.3985 1.83737 22.5221 1.50162 22.5899 1.15562C23.299 1.35331 24.4907 1.69819 25.1483 1.95866C25.1483 1.95866 27.8495 3.02328 28.1873 5.18645C28.1879 5.19092 29.8562 14.4988 30.3448 36.1571H26.6309V36.1572Z" fill="black"/>
</svg>