<svg class="type-list__icon" width="36" height="40" viewBox="0 0 36 40" fill="none" xmlns="http://www.w3.org/2000/svg">
    <path class="type-list__icon__path" d="M35.9873 16.5567L34.3503 6.73492C34.0854 5.14563 32.8997 3.88438 31.3296 3.52203L25.0638 2.07609L23.8656 0.278906C23.7655 0.128828 23.6057 0.0292188 23.4269 0.00546875C23.3994 0.00179688 23.372 0.000625 23.3445 0.000703125V0H12.6556V0.00046875C12.6281 0.00046875 12.6006 0.00171875 12.5731 0.00546875C12.3943 0.0292188 12.2345 0.128906 12.1345 0.278906L10.9363 2.07617L4.67032 3.52219C3.10024 3.88453 1.91461 5.14563 1.64961 6.73508L0.0126594 16.5567C-0.0357781 16.8471 0.124534 17.132 0.397816 17.2413L6.68477 19.756V39.3737C6.68477 39.7197 6.96516 40.0001 7.3111 40.0001H28.689C29.0348 40.0001 29.3153 39.7198 29.3153 39.3737V19.756L35.6023 17.2413C35.8754 17.1319 36.0357 16.847 35.9873 16.5567ZM23.9352 2.64141L21.207 7.00648C21.2043 7.01094 21.1971 7.02234 21.1787 7.02563C21.1602 7.02852 21.1496 7.02031 21.1456 7.01703L18.9758 5.28117L23.2195 1.56789L23.9352 2.64141ZM21.6775 1.25258L18 4.47047L14.3224 1.25258H21.6775ZM18.7098 6.67258V12.6514C18.7098 12.6744 18.6912 12.6931 18.6681 12.6931H17.332C17.309 12.6931 17.2903 12.6744 17.2903 12.6514V6.67258L18 6.10469L18.7098 6.67258ZM12.7806 1.56781L17.0243 5.28109L14.8545 7.01695C14.8506 7.02016 14.84 7.02836 14.8215 7.02555C14.8031 7.02234 14.7959 7.01086 14.7931 7.00648L12.0649 2.64141L12.7806 1.56781ZM6.68477 18.4069L1.33118 16.2654L1.53797 15.025L6.68477 17.0838V18.4069ZM28.0627 38.7474H7.93735V37.3278H28.0626V38.7474H28.0627ZM28.6889 11.357C28.3431 11.357 28.0626 11.6373 28.0626 11.9834V36.0752H7.93735V11.9833C7.93735 11.6373 7.65696 11.357 7.31102 11.357C6.96508 11.357 6.68469 11.6373 6.68469 11.9833V15.7346L1.74875 13.7602L2.88516 6.94094C3.06641 5.85352 3.87774 4.99062 4.95196 4.74258L11.0249 3.34109L13.7307 7.67047C13.9263 7.98336 14.2471 8.19828 14.6109 8.26031C14.6832 8.27258 14.7556 8.27867 14.828 8.27867C15.1198 8.27867 15.4059 8.17984 15.6369 7.99508L16.0374 7.67477V12.6514C16.0374 13.3652 16.6181 13.9458 17.3318 13.9458H18.6679C19.3816 13.9458 19.9623 13.3652 19.9623 12.6514V7.67477L20.3628 7.99516C20.5939 8.17992 20.8799 8.27875 21.1717 8.27875C21.244 8.27875 21.3165 8.27273 21.3888 8.26039C21.7525 8.19844 22.0734 7.98352 22.269 7.67047L24.9748 3.34117L31.0478 4.74258C32.122 4.99062 32.9334 5.85344 33.1146 6.94094L34.2512 13.7602L29.315 15.7346V11.9833C29.3152 11.6373 29.0348 11.357 28.6889 11.357ZM29.3152 18.4069V17.0837L34.4621 15.0251L34.6689 16.2655L29.3152 18.4069Z" fill="black"/>
</svg>