<svg width="24" height="24" viewBox="0 0 24 24" fill="none" xmlns="http://www.w3.org/2000/svg">
<path d="M12.0006 0C5.37346 0 0.000976562 5.37288 0.000976562 11.9998C0.000976562 18.6266 5.37346 24 12.0006 24C18.6277 24 24.0008 18.627 24.0008 11.9998C24.0008 5.37256 18.6277 0 12.0006 0ZM17.7051 8.6356L16.5653 9.77536L14.2452 7.45544L13.3651 8.3356L15.6851 10.6557L9.99458 16.3458L7.67466 14.0261L6.7945 14.9062L9.11442 17.2262L8.54738 17.7932L8.53658 17.7824C8.4737 17.8859 8.37146 17.9614 8.25002 17.9884L6.08658 18.4708C6.05418 18.4781 6.02122 18.4816 5.98866 18.4816C5.87058 18.4816 5.75586 18.4351 5.67082 18.3498C5.5617 18.2411 5.51626 18.0841 5.54986 17.9336L6.03202 15.7708C6.05922 15.6494 6.1349 15.547 6.23826 15.4842L6.2273 15.4733L15.3849 6.31528C15.5191 6.18128 15.7372 6.18128 15.8715 6.31568L17.7052 8.14904C17.8395 8.28328 17.8395 8.50136 17.7051 8.6356Z" fill="#7D7B7B"/>
</svg>
